<?xml version="1.0" encoding="UTF-8"?>
<svg id="Layer_1" data-name="Layer 1" xmlns="http://www.w3.org/2000/svg" version="1.1" viewBox="0 0 205.8 68">
  <defs>
    <style>
      .cls-1 {
        fill: #fff;
        stroke-width: 0px;
      }
    </style>
  </defs>
  <path class="cls-1" d="M16.2,35.4c-2.9,0-5.5-.5-7.7-1.4-2.2-1-3.9-2.4-5.1-4.3-1.2-1.9-1.9-4.4-2-7.3v-8.4c.1-2.9.8-5.3,2-7.3,1.2-2,2.9-3.4,5.1-4.4s4.7-1.5,7.6-1.5,5.5.5,7.6,1.5c2.2,1,3.9,2.5,5.1,4.4,1.2,2,1.9,4.4,2,7.3v8.4c0,2.9-.8,5.3-2,7.3-1.2,1.9-2.9,3.4-5.1,4.3-2.2,1-4.7,1.4-7.7,1.4h.2ZM16.2,28.5c1.7,0,3.1-.5,4.2-1.5s1.6-2.7,1.7-4.9v-7.9c0-1.5-.3-2.7-.8-3.7-.5-.9-1.2-1.6-2-2.1-.9-.4-1.9-.7-3-.7s-2.1.2-2.9.7c-.9.4-1.6,1.1-2.1,2.1-.5.9-.8,2.2-.9,3.7v7.9c0,2.2.7,3.9,1.8,4.9s2.4,1.5,4.1,1.5h-.1Z"/>
  <path class="cls-1" d="M37.9,34.9c-.4,0-.6,0-.9-.4s-.3-.5-.3-.8V2.5c0-.4,0-.6.3-.9.2-.2.5-.3.9-.3h5.1c.5,0,.9.1,1.2.4.2.2.4.4.5.6l11.7,18.4V2.5c0-.4,0-.6.3-.9s.5-.3.9-.3h5.8c.4,0,.6.1.9.3.2.2.3.5.3.9v31.2c0,.4,0,.6-.3.9-.2.2-.5.4-.9.4h-5.1c-.5,0-.9,0-1.1-.4-.2-.3-.4-.4-.5-.5l-11.7-17.8v17.5c0,.3,0,.6-.3.8s-.5.4-.9.4h-5.9Z"/>
  <path class="cls-1" d="M72.4,34.9c-.4,0-.6,0-.9-.4-.2-.2-.3-.5-.3-.8V2.5c0-.4,0-.6.3-.9.2-.2.5-.3.9-.3h22.4c.4,0,.6.1.9.3.2.2.3.5.3.9v4.5c0,.4,0,.6-.3.9-.2.3-.5.3-.9.3h-15.3v6.5h14.3c.4,0,.6.1.9.4.2.2.3.5.3.9v4.2c0,.3,0,.6-.3.8-.2.2-.5.4-.9.4h-14.3v6.7h15.7c.4,0,.6.1.9.3.2.2.3.5.3.9v4.5c0,.3,0,.6-.3.8-.2.2-.5.4-.9.4h-22.8,0Z"/>
  <path class="cls-1" d="M113.3,34.9c-.4,0-.6,0-.9-.4-.2-.2-.3-.5-.3-.8V2.5c0-.4,0-.6.3-.9.2-.2.5-.3.9-.3h12.5c3.1,0,5.8.5,8,1.5s3.9,2.5,5.1,4.4c1.2,1.9,1.8,4.3,1.9,7.2v7.3c-.1,3-.8,5.4-1.9,7.4-1.1,2-2.8,3.4-4.9,4.3-2.2.9-4.8,1.4-7.9,1.4h-12.8ZM120.7,28h5c1.4,0,2.5-.2,3.4-.6s1.6-1.1,2.1-2,.7-2.1.7-3.6.1-1.8.1-2.5v-2.2c0-.7,0-1.6-.1-2.4,0-2.2-.6-3.8-1.7-4.8-1.1-1-2.7-1.5-4.8-1.5h-4.8v19.8-.2Z"/>
  <path class="cls-1" d="M143.8,34.9c-.3,0-.5,0-.7-.3s-.3-.4-.3-.7v-.4l11.3-30.8c0-.4.3-.7.6-.9.3-.3.7-.4,1.3-.4h7.1c.5,0,1,.1,1.3.4.3.3.5.6.6.9l11.2,30.8v.4c0,.3-.1.5-.3.7s-.5.3-.7.3h-5.9c-.5,0-.8,0-1.1-.4-.2-.2-.4-.5-.5-.6l-1.9-4.9h-12.8l-1.8,4.9c0,.2-.2.4-.4.6-.2.2-.6.4-1.2.4h-5.9,0ZM155.1,22.1h8.9l-4.5-12.7-4.5,12.7h.1Z"/>
  <path class="cls-1" d="M186.1,34.9c-.3,0-.6,0-.8-.4-.2-.2-.4-.5-.4-.8v-10.3l-11.1-20.5v-.6c0-.3.1-.5.3-.7s.5-.3.7-.3h6c.5,0,.9.1,1.1.4.3.2.5.5.6.6l6.9,12.4,6.9-12.4c0-.2.3-.4.6-.6s.6-.4,1.1-.4h6c.3,0,.5.1.7.3.2.2.3.4.3.7v.6l-11.1,20.5v10.3c0,.3-.1.6-.4.8-.2.2-.5.4-.9.4h-6.5Z"/>
  <path class="cls-1" d="M11.4,65.3c-.4,0-.7,0-1-.3-.2-.2-.4-.5-.5-.8l-7.3-23v-.3c0-.2,0-.4.2-.5s.3-.2.6-.2h4.5c.4,0,.7,0,.9.3s.3.4.4.6l5.1,16.6,5.1-16.6c0-.2.2-.4.4-.6.2-.2.5-.3.9-.3h4.5c.2,0,.4,0,.5.2.2.2.2.3.2.5v.3l-7.3,23c0,.3-.2.5-.5.8-.2.2-.6.3-1,.3h-5.7Z"/>
  <path class="cls-1" d="M30.1,65.3c-.3,0-.5,0-.6-.3-.2-.2-.3-.4-.3-.6v-23.4c0-.3,0-.5.3-.6.2-.2.4-.3.6-.3h4.8c.3,0,.5,0,.7.3.2.2.3.4.3.6v23.4c0,.2,0,.4-.3.6-.2.2-.4.3-.7.3h-4.8Z"/>
  <path class="cls-1" d="M41.7,65.3c-.3,0-.5,0-.6-.3-.2-.2-.3-.4-.3-.6v-23.4c0-.3,0-.5.3-.6.2-.2.4-.3.6-.3h11c2.1,0,3.8.3,5.1.9,1.3.6,2.3,1.4,2.9,2.5.6,1.1,1,2.3,1,3.8s-.2,1.6-.5,2.3-.7,1.2-1.2,1.6c-.5.4-.9.7-1.3.9.9.4,1.7,1.1,2.4,2.1s1.1,2.1,1.1,3.5-.4,2.9-1.1,4.1c-.7,1.1-1.7,2-3.1,2.6-1.4.6-3,.9-5,.9h-11.3ZM47.3,50.1h4.7c1,0,1.7-.3,2.2-.8s.7-1.2.7-1.9-.2-1.4-.7-1.9-1.2-.7-2.2-.7h-4.7v5.3ZM47.3,60.7h5c1,0,1.8-.3,2.3-.9s.8-1.3.8-2.1-.3-1.5-.8-2.1-1.3-.9-2.3-.9h-5v5.9h0Z"/>
  <path class="cls-1" d="M76.5,65.7c-2.2,0-4.1-.4-5.8-1.1-1.6-.7-2.9-1.8-3.8-3.3s-1.4-3.3-1.5-5.5v-6.2c0-2.2.6-4,1.5-5.5s2.2-2.6,3.9-3.3c1.6-.7,3.5-1.1,5.7-1.1s4.1.4,5.7,1.1c1.6.7,2.9,1.9,3.9,3.3.9,1.5,1.4,3.3,1.5,5.5v6.2c0,2.2-.6,4-1.5,5.5s-2.2,2.5-3.8,3.3c-1.6.7-3.6,1.1-5.8,1.1h0ZM76.5,60.5c1.3,0,2.3-.4,3.1-1.2.8-.8,1.2-2,1.3-3.7v-5.9c0-1.1-.3-2-.6-2.8-.4-.7-.9-1.2-1.5-1.6-.6-.3-1.4-.5-2.2-.5s-1.5.2-2.2.5c-.6.3-1.2.9-1.5,1.6-.4.7-.6,1.6-.6,2.8v5.9c0,1.7.5,2.9,1.3,3.7s1.8,1.2,3.1,1.2h-.2Z"/>
  <path class="cls-1" d="M92.7,65.3c-.3,0-.5,0-.6-.3-.2-.2-.3-.4-.3-.6v-23.4c0-.3,0-.5.3-.6.2-.2.4-.3.6-.3h9.8c3.1,0,5.6.7,7.3,2.1,1.8,1.4,2.7,3.5,2.7,6.1s-.4,3.1-1.2,4.3c-.8,1.2-1.9,2.1-3.2,2.7l4.9,8.9c0,0,0,.3,0,.4,0,.2,0,.4-.2.5s-.3.2-.5.2h-4.8c-.5,0-.8,0-1-.3-.2-.2-.4-.4-.5-.6l-4.1-7.9h-3.7v8c0,.2,0,.4-.3.6s-.4.3-.7.3h-4.6ZM98.3,51.3h4.1c1.1,0,2-.3,2.5-.8s.8-1.3.8-2.2-.3-1.7-.8-2.3-1.4-.9-2.6-.9h-4.1v6.2h0Z"/>
  <path class="cls-1" d="M127,65.7c-2.3,0-4.2-.4-5.9-1.1-1.6-.8-2.9-1.9-3.8-3.3-.9-1.5-1.4-3.2-1.5-5.3v-6.6c0-2,.6-3.8,1.5-5.2s2.2-2.5,3.9-3.2c1.7-.7,3.6-1.1,5.8-1.1s3.4.2,4.8.7c1.4.4,2.6,1,3.5,1.8.9.7,1.7,1.6,2.2,2.4.5.9.8,1.8.8,2.6s0,.4-.2.5-.3.2-.6.2h-5.3c-.3,0-.5,0-.6,0s-.2-.2-.3-.4c-.2-.4-.4-.7-.7-1.1-.3-.4-.8-.7-1.3-1-.6-.3-1.3-.4-2.2-.4-1.3,0-2.4.4-3.2,1.1-.8.7-1.2,1.9-1.3,3.5v6.3c0,1.7.5,2.9,1.3,3.6.8.7,1.9,1.1,3.3,1.1s1.7-.2,2.4-.5c.7-.3,1.3-.8,1.7-1.5s.6-1.5.6-2.5v-.7h-3.4c-.3,0-.5,0-.6-.3-.2-.2-.3-.4-.3-.7v-2.7c0-.3,0-.5.3-.7.2-.2.4-.3.6-.3h9.1c.3,0,.5,0,.6.3.2.2.3.4.3.7v4.1c0,2.1-.5,3.8-1.4,5.3-.9,1.5-2.3,2.6-4,3.4s-3.7,1.2-6,1.2h-.1Z"/>
</svg>